<svg width="30" height="30" viewBox="0 0 30 30" fill="none" xmlns="http://www.w3.org/2000/svg">
<path d="M10.6628 25.8828C9.88159 25.8828 9.42261 25.3359 9.42261 24.4766V22.25H8.90503C6.24878 22.25 4.59839 20.6289 4.59839 17.8652V10.6582C4.59839 7.9043 6.19995 6.27344 8.98315 6.27344H21.0535C23.8464 6.27344 25.4382 7.9043 25.4382 10.6582V17.8652C25.4382 20.6191 23.8464 22.25 21.0535 22.25H15.448L12.2937 25.0332C11.6199 25.6191 11.2097 25.8828 10.6628 25.8828ZM11.1511 23.6953L14.0613 20.8145C14.4714 20.3945 14.7449 20.2969 15.3308 20.2969H20.9753C22.6746 20.2969 23.4851 19.4473 23.4851 17.7871V10.7363C23.4851 9.08594 22.6746 8.22656 20.9753 8.22656H9.06128C7.36206 8.22656 6.55151 9.08594 6.55151 10.7363V17.7871C6.55151 19.4473 7.36206 20.2969 9.06128 20.2969H10.3699C10.8972 20.2969 11.1511 20.5117 11.1511 21.0781V23.6953ZM10.7605 14.2617C10.7605 13.7344 11.1414 13.3535 11.6687 13.3535H14.1199V10.9023C14.1199 10.3652 14.491 9.99414 15.0183 9.99414C15.5554 9.99414 15.9265 10.3652 15.9265 10.9023V13.3535H18.3875C18.9148 13.3535 19.2859 13.7344 19.2859 14.2617C19.2859 14.7891 18.9148 15.1602 18.3875 15.1602H15.9265V17.6211C15.9265 18.1484 15.5554 18.5195 15.0183 18.5195C14.491 18.5195 14.1199 18.1387 14.1199 17.6211V15.1602H11.6687C11.1414 15.1602 10.7605 14.7891 10.7605 14.2617Z" fill="black"/>
</svg>
