<svg width="29" height="26" viewBox="0 0 29 26" fill="none" xmlns="http://www.w3.org/2000/svg">
<path d="M6.57031 25.48C4.8125 25.48 3.99219 23.7925 4.98828 22.4565C5.43359 21.8589 6.07812 20.7808 6.48828 20.0542C3.10156 18.1909 0.980469 14.8628 0.980469 11.23C0.980469 5.13623 7.00391 0.237793 14.5156 0.237793C22.0273 0.237793 28.0508 5.13623 28.0508 11.23C28.0508 17.4409 22.1094 22.1636 14.0352 22.187C11.457 24.0269 8.21094 25.48 6.57031 25.48ZM8.32812 22.1636C9.25391 21.7886 11.2812 20.4526 12.5352 19.4683C13.0391 19.0698 13.3906 18.9409 13.8945 18.9409C14.1406 18.9526 14.3516 18.9526 14.5156 18.9526C20.2227 18.9526 24.793 15.4839 24.793 11.23C24.793 6.96436 20.2227 3.49561 14.5156 3.49561C8.80859 3.49561 4.23828 6.96436 4.23828 11.23C4.23828 13.9604 6.11328 16.3745 9.25391 17.8745C9.98047 18.2261 10.1914 18.8237 9.80469 19.5386C9.32422 20.4292 8.57422 21.4019 8.14062 21.9409C7.96484 22.1636 8.07031 22.269 8.32812 22.1636Z" fill="black"/>
</svg>
