<svg width="33" height="34" viewBox="0 0 33 34" fill="none" xmlns="http://www.w3.org/2000/svg">
<g clip-path="url(#clip0_6185_884)">
<path d="M8.07031 32.502C6.3125 32.502 5.49219 30.8145 6.48828 29.4785C6.93359 28.8809 7.57812 27.8027 7.98828 27.0762C4.60156 25.2129 2.48047 21.8848 2.48047 18.252C2.48047 12.1582 8.50391 7.25977 16.0156 7.25977C23.5273 7.25977 29.5508 12.1582 29.5508 18.252C29.5508 24.4629 23.6094 29.1855 15.5352 29.209C12.957 31.0488 9.71094 32.502 8.07031 32.502ZM9.82812 29.1855C10.7539 28.8105 12.7812 27.4746 14.0352 26.4902C14.5391 26.0918 14.8906 25.9629 15.3945 25.9629C15.6406 25.9746 15.8516 25.9746 16.0156 25.9746C21.7227 25.9746 26.293 22.5059 26.293 18.252C26.293 13.9863 21.7227 10.5176 16.0156 10.5176C10.3086 10.5176 5.73828 13.9863 5.73828 18.252C5.73828 20.9824 7.61328 23.3965 10.7539 24.8965C11.4805 25.248 11.6914 25.8457 11.3047 26.5605C10.8242 27.4512 10.0742 28.4238 9.64062 28.9629C9.46484 29.1855 9.57031 29.291 9.82812 29.1855Z" fill="black"/>
</g>
<defs>
<clipPath id="clip0_6185_884">
<rect width="32" height="29" fill="white" transform="translate(0.5 4.88477)"/>
</clipPath>
</defs>
</svg>
