<svg width="30" height="30" viewBox="0 0 30 30" fill="none" xmlns="http://www.w3.org/2000/svg">
<path d="M7.47925 24.5859C5.46753 24.5859 4.39331 23.541 4.39331 21.5293V10.2695C4.39331 8.28711 5.45776 7.25195 7.22534 7.25195H9.83276C10.8191 7.25195 11.2976 7.42773 11.9617 7.96484L12.4792 8.38477C13.0066 8.80469 13.407 8.96094 14.0808 8.96094H22.5574C24.5789 8.96094 25.6433 10.0254 25.6433 12.0273V21.5293C25.6433 23.5312 24.5886 24.5859 22.7722 24.5859H7.47925ZM6.34644 10.4551V12.7598H23.6902V12.2129C23.6902 11.3438 23.2312 10.9141 22.4109 10.9141H13.5632C12.5769 10.9141 12.0789 10.7383 11.4246 10.2109L10.907 9.79102C10.3699 9.35156 9.97925 9.19531 9.31519 9.19531H7.6062C6.80542 9.19531 6.34644 9.63477 6.34644 10.4551ZM7.62573 22.6328H22.4109C23.2312 22.6328 23.6902 22.2129 23.6902 21.3535V14.4395H6.34644V21.3438C6.34644 22.2129 6.79565 22.6328 7.62573 22.6328Z" fill="black"/>
</svg>
