<svg width="29" height="36" viewBox="0 0 29 36" fill="none" xmlns="http://www.w3.org/2000/svg">
<path d="M1.94141 20.748C0.957031 20.748 0.324219 20.1035 0.324219 19.2246C0.324219 18.7676 0.558594 18.2871 0.96875 17.9355L12.5234 8.24414C13.168 7.70508 13.918 7.42383 14.6562 7.42383C15.3945 7.42383 16.1328 7.70508 16.7773 8.24414L21.207 11.959V10.5176C21.207 9.99023 21.5703 9.65039 22.0977 9.65039H24.4062C24.9336 9.65039 25.2734 9.99023 25.2734 10.5176V15.3691L28.332 17.9355C28.7539 18.2871 28.9766 18.7676 28.9766 19.2246C28.9766 20.1035 28.3438 20.748 27.3711 20.748C26.9375 20.748 26.4922 20.5371 26.1172 20.2207L25.2734 19.5059V29.3262C25.2734 31.1777 24.1133 32.3262 22.1562 32.3262H7.15625C5.19922 32.3262 4.03906 31.1777 4.03906 29.3262V19.5059L3.18359 20.2207C2.82031 20.5371 2.375 20.748 1.94141 20.748ZM17.832 22.8926V29.127H21.0664C21.7109 29.127 22.0742 28.7637 22.0742 28.1191V16.8223L15.3359 11.1855C15.1133 10.998 14.8789 10.9043 14.6562 10.9043C14.4219 10.9043 14.1875 10.998 13.9766 11.1855L7.23828 16.8223V28.1191C7.23828 28.7637 7.60156 29.127 8.24609 29.127H11.4805V22.8926C11.4805 22.3535 11.8438 22.002 12.3828 22.002H16.9414C17.4805 22.002 17.832 22.3535 17.832 22.8926Z" fill="#F25619"/>
</svg>
