<svg width="25" height="22" viewBox="0 0 25 22" fill="none" xmlns="http://www.w3.org/2000/svg">
<path d="M1.70117 11.5527C0.880859 11.5527 0.353516 11.0156 0.353516 10.2832C0.353516 9.90234 0.548828 9.50195 0.890625 9.20898L10.5195 1.13281C11.0566 0.683594 11.6816 0.449219 12.2969 0.449219C12.9121 0.449219 13.5273 0.683594 14.0645 1.13281L17.7559 4.22852V3.02734C17.7559 2.58789 18.0586 2.30469 18.498 2.30469H20.4219C20.8613 2.30469 21.1445 2.58789 21.1445 3.02734V7.07031L23.6934 9.20898C24.0449 9.50195 24.2305 9.90234 24.2305 10.2832C24.2305 11.0156 23.7031 11.5527 22.8926 11.5527C22.5312 11.5527 22.1602 11.377 21.8477 11.1133L21.1445 10.5176V18.7012C21.1445 20.2441 20.1777 21.2012 18.5469 21.2012H6.04688C4.41602 21.2012 3.44922 20.2441 3.44922 18.7012V10.5176L2.73633 11.1133C2.43359 11.377 2.0625 11.5527 1.70117 11.5527ZM14.9434 13.3398V18.5352H17.6387C18.1758 18.5352 18.4785 18.2324 18.4785 17.6953V8.28125L12.8633 3.58398C12.6777 3.42773 12.4824 3.34961 12.2969 3.34961C12.1016 3.34961 11.9062 3.42773 11.7305 3.58398L6.11523 8.28125V17.6953C6.11523 18.2324 6.41797 18.5352 6.95508 18.5352H9.65039V13.3398C9.65039 12.8906 9.95312 12.5977 10.4023 12.5977H14.2012C14.6504 12.5977 14.9434 12.8906 14.9434 13.3398Z" fill="black"/>
</svg>
