<svg width="24" height="18" viewBox="0 0 24 18" fill="none" xmlns="http://www.w3.org/2000/svg">
<path d="M8.74414 8.48047C6.63477 8.48047 4.93555 6.64453 4.93555 4.33008C4.93555 2.09375 6.6543 0.238281 8.74414 0.238281C10.834 0.238281 12.5527 2.07422 12.5527 4.32031C12.5527 6.64453 10.8535 8.48047 8.74414 8.48047ZM16.6934 8.22656C16.0879 8.22656 15.6191 7.74805 15.6191 7.13281C15.6191 6.85938 15.7363 6.5957 15.9414 6.39062L17.9043 4.42773L15.9414 2.45508C15.7363 2.25 15.6191 1.98633 15.6191 1.71289C15.6191 1.09766 16.0879 0.638672 16.6934 0.638672C17.0156 0.638672 17.2695 0.736328 17.4844 0.951172L19.4375 2.89453L21.4004 0.941406C21.6152 0.726562 21.8691 0.628906 22.1914 0.628906C22.7969 0.628906 23.2656 1.09766 23.2656 1.71289C23.2656 1.98633 23.1484 2.24023 22.9434 2.45508L20.9805 4.42773L22.9336 6.39062C23.1484 6.5957 23.2656 6.85938 23.2656 7.13281C23.2656 7.74805 22.7969 8.22656 22.1816 8.22656C21.8594 8.22656 21.5957 8.11914 21.3906 7.9043L19.4375 5.96094L17.4941 7.9043C17.2793 8.11914 17.0156 8.22656 16.6934 8.22656ZM2.71875 17.1719C1.55664 17.1719 0.853516 16.6055 0.853516 15.6582C0.853516 13.3047 3.94922 10.082 8.74414 10.082C13.5293 10.082 16.625 13.3047 16.625 15.6582C16.625 16.6055 15.9316 17.1719 14.7598 17.1719H2.71875Z" fill="black"/>
</svg>
