<svg width="28" height="26" viewBox="0 0 28 26" fill="none" xmlns="http://www.w3.org/2000/svg">
<circle cx="22.0447" cy="5.5708" r="2.56689" fill="#F25619"/>
<path fill-rule="evenodd" clip-rule="evenodd" d="M4.32812 22.7148C3.33203 24.0508 4.15234 25.7383 5.91016 25.7383C7.55078 25.7383 10.7969 24.2852 13.375 22.4453C21.4492 22.4219 27.3906 17.6992 27.3906 11.4883C27.3906 9.9027 26.9828 8.39805 26.2471 7.03956C25.7671 8.12113 24.8661 8.97441 23.7521 9.39143C24.0003 10.0585 24.1328 10.7618 24.1328 11.4883C24.1328 15.7422 19.5625 19.2109 13.8555 19.2109C13.6914 19.2109 13.4805 19.2109 13.2344 19.1992C12.7305 19.1992 12.3789 19.3281 11.875 19.7266C10.6211 20.7109 8.59375 22.0469 7.66797 22.4219C7.41016 22.5273 7.30469 22.4219 7.48047 22.1992C7.91406 21.6602 8.66406 20.6875 9.14453 19.7969C9.53125 19.082 9.32031 18.4844 8.59375 18.1328C5.45312 16.6328 3.57812 14.2188 3.57812 11.4883C3.57812 7.22266 8.14844 3.75391 13.8555 3.75391C15.2809 3.75391 16.6353 3.97029 17.8654 4.36142C18.1004 3.20415 18.7871 2.21093 19.7335 1.57383C17.9587 0.882708 15.9658 0.496094 13.8555 0.496094C6.34375 0.496094 0.320312 5.39453 0.320312 11.4883C0.320312 15.1211 2.44141 18.4492 5.82812 20.3125C5.41797 21.0391 4.77344 22.1172 4.32812 22.7148Z" fill="black"/>
</svg>
