<svg width="20" height="21" viewBox="0 0 20 21" fill="none" xmlns="http://www.w3.org/2000/svg">
<path d="M16.3212 6.78201C16.3212 10.2257 13.5295 13.0174 10.0858 13.0174C6.64212 13.0174 3.85045 10.2257 3.85045 6.78201C3.85045 3.3383 6.64212 0.546631 10.0858 0.546631C13.5295 0.546631 16.3212 3.3383 16.3212 6.78201ZM19.5739 20.5696H0.788086C2.07757 17.5931 4.75412 15.2746 8.17468 14.5832C12.9262 13.6227 18.3652 16.5302 19.5739 20.5696Z" fill="black"/>
<path d="M16.3212 6.78201C16.3212 10.2257 13.5295 13.0174 10.0858 13.0174C6.64212 13.0174 3.85045 10.2257 3.85045 6.78201C3.85045 3.3383 6.64212 0.546631 10.0858 0.546631C13.5295 0.546631 16.3212 3.3383 16.3212 6.78201ZM19.5739 20.5696H0.788086C2.07757 17.5931 4.75412 15.2746 8.17468 14.5832C12.9262 13.6227 18.3652 16.5302 19.5739 20.5696Z" stroke="black"/>
</svg>
