<svg width="34" height="33" viewBox="0 0 34 33" fill="none" xmlns="http://www.w3.org/2000/svg">
<path d="M22.9226 12.98C22.9226 16.4237 20.131 19.2154 16.6873 19.2154C13.2436 19.2154 10.4519 16.4237 10.4519 12.98C10.4519 9.5363 13.2436 6.74463 16.6873 6.74463C20.131 6.74463 22.9226 9.5363 22.9226 12.98ZM26.1753 26.7676H7.38953C8.67901 23.7911 11.3556 21.4726 14.7761 20.7812C19.5276 19.8207 24.9667 22.7282 26.1753 26.7676Z" fill="black"/>
<path d="M22.9226 12.98C22.9226 16.4237 20.131 19.2154 16.6873 19.2154C13.2436 19.2154 10.4519 16.4237 10.4519 12.98C10.4519 9.5363 13.2436 6.74463 16.6873 6.74463C20.131 6.74463 22.9226 9.5363 22.9226 12.98ZM26.1753 26.7676H7.38953C8.67901 23.7911 11.3556 21.4726 14.7761 20.7812C19.5276 19.8207 24.9667 22.7282 26.1753 26.7676Z" stroke="black"/>
</svg>
