<svg width="30" height="30" viewBox="0 0 30 30" fill="none" xmlns="http://www.w3.org/2000/svg">
<path d="M25.8149 6.5918L23.6704 4.44726L24.3618 3.75586C24.9009 3.22851 25.7329 3.13476 26.2017 3.58008L26.5884 3.9668C27.1274 4.49414 27.0923 5.30273 26.5298 5.86523L25.8149 6.5918ZM8.30713 25.9746C5.70557 25.9746 4.25244 24.5332 4.25244 21.9434V9.38086C4.25244 6.79101 5.70557 5.34961 8.30713 5.34961H20.0962L16.8853 8.54883H8.70557C7.88525 8.54883 7.45166 8.93555 7.45166 9.81445V21.5098C7.45166 22.3887 7.88525 22.7754 8.70557 22.7754H20.5649C21.2563 22.7754 21.6782 22.3887 21.6782 21.5098V13.4004L24.8774 10.2012V21.9434C24.8774 24.5332 23.4243 25.9746 20.9634 25.9746H8.30713ZM12.8892 17.9941C12.5259 18.1348 12.0923 17.7598 12.2563 17.3379L13.2642 14.8652L22.7563 5.36133L24.9009 7.50586L15.4087 17.0098L12.8892 17.9941Z" fill="black"/>
</svg>
