<svg width="24" height="24" viewBox="0 0 24 24" fill="none" xmlns="http://www.w3.org/2000/svg">
<path d="M21.7476 3.87524L19.603 1.73071L20.2944 1.03931C20.8335 0.511961 21.6655 0.418211 22.1343 0.863524L22.521 1.25024C23.0601 1.77759 23.0249 2.58618 22.4624 3.14868L21.7476 3.87524ZM4.23975 23.2581C1.63818 23.2581 0.185058 21.8167 0.185058 19.2268V6.66431C0.185058 4.07446 1.63818 2.63306 4.23975 2.63306H16.0288L12.8179 5.83227H4.63818C3.81787 5.83227 3.38428 6.21899 3.38428 7.0979V18.7932C3.38428 19.6721 3.81787 20.0588 4.63818 20.0588H16.4976C17.189 20.0588 17.6108 19.6721 17.6108 18.7932V10.6838L20.8101 7.48462V19.2268C20.8101 21.8167 19.3569 23.2581 16.896 23.2581H4.23975ZM8.82178 15.2776C8.4585 15.4182 8.0249 15.0432 8.18896 14.6213L9.19678 12.1487L18.689 2.64477L20.8335 4.78931L11.3413 14.2932L8.82178 15.2776Z" fill="black"/>
</svg>
