<svg width="20" height="20" viewBox="0 0 20 20" fill="none" xmlns="http://www.w3.org/2000/svg">
<path d="M0.508911 8.18164C0.508911 3.80664 4.04407 0.271484 8.41907 0.271484C12.7843 0.271484 16.3292 3.80664 16.3292 8.18164C16.3292 9.62695 15.9288 10.9844 15.2355 12.127L18.6339 15.5449C19.0441 15.9551 19.2394 16.4922 19.2394 17.0488C19.2394 18.2402 18.3409 19.1582 17.13 19.1582C16.5734 19.1582 16.0167 18.9629 15.6066 18.5625L12.1691 15.1152C11.0558 15.7305 9.78625 16.0918 8.41907 16.0918C4.04407 16.0918 0.508911 12.5566 0.508911 8.18164ZM3.33118 8.18164C3.33118 10.9844 5.61633 13.2695 8.4093 13.2695C11.2218 13.2695 13.4972 10.9844 13.4972 8.18164C13.4972 5.37891 11.2218 3.09375 8.4093 3.09375C5.61633 3.09375 3.33118 5.37891 3.33118 8.18164Z" fill="black"/>
</svg>
