<svg width="31" height="31" viewBox="0 0 31 31" fill="none" xmlns="http://www.w3.org/2000/svg">
<rect x="1.41504" y="1.50244" width="28.085" height="28.085" rx="13.7" fill="white"/>
<rect x="1.41504" y="1.50244" width="28.085" height="28.085" rx="13.7" stroke="#F25619" stroke-width="2.055"/>
<path d="M14.9883 22.6651C14.326 22.6651 14.0183 22.1768 13.8177 21.5079L12.4998 16.9858L7.95101 15.6546C7.28875 15.4606 6.82049 15.1529 6.82049 14.4906C6.82049 13.922 7.23524 13.534 7.81722 13.3133L18.9752 9.05211C19.2294 8.95177 19.4635 8.89826 19.6776 8.89826C20.2261 8.89826 20.5807 9.25949 20.5807 9.80802C20.5807 10.0087 20.5339 10.2495 20.4335 10.5037L16.179 21.6416C15.9449 22.2571 15.5569 22.6651 14.9883 22.6651ZM13.0551 15.3469L15.6037 12.8183C16.0854 12.35 16.7276 11.8082 17.2761 11.3667C16.46 11.7413 15.8379 12.0155 15.2091 12.2697L10.1117 14.2766C10.0582 14.2899 10.0381 14.3234 10.0381 14.3635C10.0381 14.4037 10.0649 14.4304 10.1251 14.4505L13.0551 15.3469ZM15.1221 19.4475C15.1622 19.4475 15.189 19.4141 15.2091 19.3605L17.2092 14.2766C17.4634 13.6411 17.7444 13.019 18.119 12.1962C17.6908 12.7313 17.1089 13.427 16.6674 13.8752L14.1387 16.4239L15.0418 19.3539C15.0552 19.4141 15.082 19.4475 15.1221 19.4475Z" fill="#F25619"/>
</svg>
