<svg width="30" height="25" viewBox="0 0 30 25" fill="none" xmlns="http://www.w3.org/2000/svg">
<path d="M14.5281 15.1973C14.0203 15.1973 13.6199 14.7871 13.6199 14.3086V5.08984L13.6882 3.72266L13.2195 4.32812L11.95 5.68555C11.7937 5.85156 11.5593 5.94922 11.3347 5.94922C10.8953 5.94922 10.5339 5.62695 10.5339 5.16797C10.5339 4.93359 10.6316 4.76758 10.7878 4.60156L13.825 1.68164C14.0593 1.44727 14.2839 1.36914 14.5281 1.36914C14.7625 1.36914 14.9871 1.44727 15.2214 1.68164L18.2585 4.60156C18.4148 4.76758 18.5125 4.93359 18.5125 5.16797C18.5125 5.62695 18.1414 5.94922 17.7019 5.94922C17.4773 5.94922 17.2625 5.85156 17.1062 5.68555L15.8269 4.32812L15.3582 3.72266L15.4363 5.08984V14.3086C15.4363 14.7871 15.0261 15.1973 14.5281 15.1973ZM9.19604 22.7363C7.18433 22.7363 6.11011 21.6816 6.11011 19.6797V10.6562C6.11011 8.64453 7.18433 7.58984 9.19604 7.58984H11.8718V9.54297H9.34253C8.51245 9.54297 8.06323 9.97266 8.06323 10.8418V19.4844C8.06323 20.3535 8.51245 20.7832 9.34253 20.7832H19.7039C20.5242 20.7832 20.9832 20.3535 20.9832 19.4844V10.8418C20.9832 9.97266 20.5242 9.54297 19.7039 9.54297H17.1746V7.58984H19.8503C21.8718 7.58984 22.9363 8.6543 22.9363 10.6562V19.6797C22.9363 21.6816 21.8718 22.7363 19.8503 22.7363H9.19604Z" fill="black"/>
</svg>
